<svg width="15" height="24" viewBox="0 0 15 24" fill="none" xmlns="http://www.w3.org/2000/svg">
<g clip-path="url(#clip0_14629_83)">
<path d="M7.50001 14.1035C11.0912 14.1035 14.0024 11.4963 14.0024 8.2802C14.0024 5.06405 11.0912 2.45685 7.50001 2.45685C3.90882 2.45685 0.997589 5.06405 0.997589 8.2802C0.997589 11.4963 3.90882 14.1035 7.50001 14.1035Z" fill="#EA580C"/>
<path d="M7.50001 14.4365C8.63947 14.4365 9.56319 13.6093 9.56319 12.5888C9.56319 11.5683 8.63947 10.7411 7.50001 10.7411C6.36055 10.7411 5.43683 11.5683 5.43683 12.5888C5.43683 13.6093 6.36055 14.4365 7.50001 14.4365Z" fill="#EA580C"/>
<path d="M1.0358 9.48874C1.41782 9.44133 1.64333 8.85902 1.53951 8.18811C1.4357 7.51721 1.04185 7.01176 0.65984 7.05917C0.277827 7.10658 0.0523018 7.6889 0.156121 8.35981C0.25994 9.03072 0.653788 9.53616 1.0358 9.48874Z" fill="#EA580C"/>
<path d="M14.8125 8.39429C14.9507 7.72838 14.7554 7.13739 14.3762 7.07427C13.997 7.01115 13.5776 7.4998 13.4394 8.16572C13.3012 8.83163 13.4965 9.42263 13.8757 9.48575C14.2549 9.54887 14.6743 9.06021 14.8125 8.39429Z" fill="#EA580C"/>
<path d="M6.74274 2.73299C7.50453 0.121826 4.92896 0 4.92896 0C7.39117 0 7.49546 2.43655 7.49546 2.43655C7.49546 2.43655 7.57708 0.917766 9.14147 1.04365C9.14147 1.04365 7.39117 0.917767 8.23458 2.97665M15.0045 20.7147C15.0045 24.4751 11.8304 24.0244 7.59975 23.935C3.66384 23.8538 0.158701 24.5036 0.00906372 20.9827C0.00906372 20.8812 0.00906372 20.7797 0.00906372 20.6782C0.00906372 18.4244 2.56196 13.8558 4.91082 14.6599C5.71795 14.936 6.5931 15.3706 7.5136 15.3706C8.43409 15.3706 9.32738 14.936 10.1118 14.6599C12.4516 13.8477 14.9909 18.4162 15.0136 20.6579L15.0045 20.7147Z" fill="#EA580C"/>
</g>
<defs>
<clipPath id="clip0_14629_83">
<rect width="15" height="24" fill="white"/>
</clipPath>
</defs>
</svg>
