<svg width="6" height="12" viewBox="0 0 6 12" fill="none" xmlns="http://www.w3.org/2000/svg">
<path d="M0.207043 11.7652C0.339652 11.9156 0.519485 12 0.706995 12C0.894505 12 1.07434 11.9156 1.20695 11.7652L5.7935 6.56447C5.85954 6.48989 5.91182 6.40113 5.94728 6.30338C5.98273 6.20563 6.00065 6.10085 5.99998 5.99516C6.00045 5.8895 5.98244 5.78478 5.947 5.68706C5.91156 5.58935 5.85939 5.50056 5.7935 5.42585L1.20695 0.225087C1.07358 0.0790247 0.894951 -0.00179663 0.70954 3.03118e-05C0.524129 0.00185725 0.346767 0.0861862 0.215657 0.234855C0.0845462 0.383523 0.0101766 0.584636 0.00856539 0.794877C0.00695421 1.00512 0.0782305 1.20767 0.207043 1.3589L4.29576 5.99516L0.207043 10.6314C0.0744735 10.7818 0 10.9857 0 11.1983C0 11.4109 0.0744735 11.6149 0.207043 11.7652Z" fill="#D97706"/>
</svg>
