<svg width="24" height="24" viewBox="0 0 24 24" fill="none" xmlns="http://www.w3.org/2000/svg">
<path d="M20.6035 6.23998H18.24V3.7315C18.24 1.93822 16.825 0.47998 15.0269 0.47998H8.97361C7.17457 0.47998 5.76001 1.93822 5.76001 3.7315V6.23998H3.39601C1.78513 6.23998 0.480011 7.48366 0.480011 9.08974V20.1331C0.480011 21.7387 1.78513 23.04 3.39601 23.04H20.6035C22.2139 23.04 23.52 21.7387 23.52 20.1326V9.08974C23.52 7.48366 22.2139 6.23998 20.6035 6.23998ZM7.68001 3.7315C7.68001 3.05998 8.30017 2.39998 8.97361 2.39998H15.0269C15.6984 2.39998 16.32 3.05998 16.32 3.7315V6.23998H7.68001V3.7315ZM17.28 16.8H13.92V20.16H10.08V16.8H6.72001V12.96H10.08V9.59998H13.92V12.96H17.28V16.8Z" fill="#001111"/>
<path d="M20.6035 6.23998H18.24V3.7315C18.24 1.93822 16.825 0.47998 15.0269 0.47998H8.97361C7.17457 0.47998 5.76001 1.93822 5.76001 3.7315V6.23998H3.39601C1.78513 6.23998 0.480011 7.48366 0.480011 9.08974V20.1331C0.480011 21.7387 1.78513 23.04 3.39601 23.04H20.6035C22.2139 23.04 23.52 21.7387 23.52 20.1326V9.08974C23.52 7.48366 22.2139 6.23998 20.6035 6.23998ZM7.68001 3.7315C7.68001 3.05998 8.30017 2.39998 8.97361 2.39998H15.0269C15.6984 2.39998 16.32 3.05998 16.32 3.7315V6.23998H7.68001V3.7315ZM17.28 16.8H13.92V20.16H10.08V16.8H6.72001V12.96H10.08V9.59998H13.92V12.96H17.28V16.8Z" fill="#001111"/>
</svg>
