<svg width="24" height="24" viewBox="0 0 24 24" fill="none" xmlns="http://www.w3.org/2000/svg">
<path d="M12 0C18.6274 0 24 5.37258 24 12C24 18.6274 18.6274 24 12 24C5.37258 24 0 18.6274 0 12C0 5.37258 5.37258 0 12 0ZM12 2C6.47716 2 2 6.47716 2 12C2 17.5228 6.47716 22 12 22C17.5228 22 22 17.5228 22 12C22 6.47716 17.5228 2 12 2ZM15.7271 15.3331C16.0954 14.9216 16.7276 14.8865 17.1392 15.2549C17.5506 15.6232 17.5856 16.2554 17.2174 16.667C15.937 18.0974 14.0733 19 12 19C9.92674 19 8.06296 18.0974 6.78264 16.667C6.41432 16.2554 6.44934 15.6232 6.86086 15.2549C7.2724 14.8865 7.90458 14.9216 8.27292 15.3331C9.18988 16.3576 10.5193 17 12 17C13.4807 17 14.8101 16.3576 15.7271 15.3331ZM8.5 8.5C9.32842 8.5 10 9.17158 10 10C10 10.8284 9.32842 11.5 8.5 11.5C7.67158 11.5 7 10.8284 7 10C7 9.17158 7.67158 8.5 8.5 8.5ZM15.5 8.5C16.3284 8.5 17 9.17158 17 10C17 10.8284 16.3284 11.5 15.5 11.5C14.6716 11.5 14 10.8284 14 10C14 9.17158 14.6716 8.5 15.5 8.5Z" fill="#001111"/>
</svg>
