<svg width="26" height="24" viewBox="0 0 26 24" fill="none" xmlns="http://www.w3.org/2000/svg">
<path d="M18.85 0C16.575 0 14.4301 1.04637 13 2.74669C11.5698 1.04637 9.425 0 7.15 0C3.11987 0 0 3.13881 0 7.19344C0 12.1632 4.41988 16.1527 11.1148 22.2993L13 24L14.8853 22.2993C21.5801 16.1526 26 12.1631 26 7.19344C26 3.13881 22.8801 0 18.85 0ZM13.8023 20.5786L13.5386 20.8206L13 21.3064L12.4615 20.8207L12.1981 20.5789C9.047 17.6862 6.32556 15.188 4.5265 12.9543C2.77919 10.7847 2 9.008 2 7.19344C2 5.76438 2.52637 4.44775 3.48219 3.48619C4.43481 2.52781 5.73738 2 7.15 2C8.78338 2 10.3981 2.76044 11.4694 4.03406L13 5.85381L14.5306 4.03406C15.6019 2.76044 17.2166 2 18.85 2C20.2627 2 21.5652 2.52781 22.5179 3.48613C23.4736 4.44775 24 5.76431 24 7.19344C24 9.008 23.2208 10.7846 21.4736 12.9541C19.6746 15.1879 16.9533 17.6859 13.8023 20.5786Z" fill="black"/>
</svg>
