<svg width="24" height="24" viewBox="0 0 24 24" fill="none" xmlns="http://www.w3.org/2000/svg">
<path d="M22.4129 14.7388C22.2227 14.3525 21.7735 14.1686 21.3665 14.3103L16.4056 16.1246C16.3734 16.1366 16.3401 16.1424 16.3076 16.1428C16.2352 16.1935 16.1608 16.238 16.0884 16.2783C15.748 16.4668 15.3526 16.5945 14.9134 16.6576C13.4658 16.8659 12.0345 16.867 10.6233 16.6658L10.0516 16.5845C9.889 16.5616 9.77591 16.411 9.79914 16.2485C9.82201 16.0859 9.97149 15.9682 10.1353 15.9961L10.7069 16.0774C12.0623 16.2701 13.4364 16.2694 14.7903 16.0747C15.1961 16.0166 15.523 15.9117 15.8003 15.758C16.1542 15.5618 16.2739 15.3969 16.2739 15.1038C16.2739 14.6134 15.8746 14.2147 15.3839 14.2147H12.0767C11.5659 14.2147 11.0636 14.1257 10.5837 13.9499L8.13235 13.0519C7.39732 12.784 6.58289 12.7697 5.83935 13.0105C4.49203 13.4463 3.27097 14.224 2.30706 15.2591L1.5 16.185V22.5L2.80508 20.3447C2.97704 20.0431 3.13351 19.7962 3.29343 19.5736C3.58738 19.1656 3.87975 18.8524 4.35262 18.6492C4.97612 18.3821 5.6732 18.3535 6.3149 18.5687L11.6406 20.3633C12.5081 20.6559 13.4658 20.5696 14.2686 20.1298L22.0624 15.8498C22.4585 15.6322 22.6123 15.1445 22.4129 14.7388ZM7.8818 7.93915L12.6255 12.1593C12.6613 12.1911 12.7144 12.1911 12.7502 12.1593L15.1922 9.98683L17.4939 7.93915C18.6669 6.89566 19.1721 5.15192 18.5967 3.63902C18.3018 2.86333 17.748 2.14835 16.7442 1.77509C14.4346 0.916364 13.0825 2.28884 12.6879 2.88203C12.2932 2.28884 10.9411 0.916364 8.63157 1.77509C7.62774 2.14835 7.07398 2.86333 6.779 3.63902C6.20366 5.15192 6.70885 6.89566 7.8818 7.93915Z" fill="#001111"/>
</svg>
