<svg width="15" height="21" viewBox="0 0 15 21" fill="none" xmlns="http://www.w3.org/2000/svg">
<path d="M5.75 0.5H6.5V2H5.75V0.5ZM8.75 0.5H9.5V2H8.75V0.5ZM11.75 0.5H12.5V2H11.75V0.5ZM2.75 0.5H3.5V2H2.75V0.5ZM13.2523 2C13.2523 2 12.5938 2 12.5 2V3.5H11.75V2H9.5V3.5H8.75V2H6.5V3.5H5.75V2H3.5V3.5H2.75V2C2.65625 2 1.99775 2 1.99775 2C1.1705 2 0.5 2.66825 0.5 3.50225V19.2477C0.5 20.0772 1.16825 20.75 1.99775 20.75H13.2523C14.0795 20.75 14.75 20.0817 14.75 19.2477V3.50225C14.75 2.67275 14.0818 2 13.2523 2Z" fill="#DC2626"/>
</svg>
