<svg width="18" height="24" viewBox="0 0 18 24" fill="none" xmlns="http://www.w3.org/2000/svg">
<path d="M2.72881 18.3444L0.202806 22.2444L0.471606 23.52L1.74361 23.2476L4.26841 19.35C3.72547 19.0627 3.21011 18.7261 2.72881 18.3444V18.3444ZM13.4232 16.9824C13.44 16.9476 13.4508 16.9092 13.4664 16.872C13.53 16.7316 13.5864 16.5912 13.632 16.4436C13.6392 16.4172 13.6428 16.3908 13.6512 16.3668C13.698 16.2055 13.7373 16.0421 13.7688 15.8772V15.852C14.0028 14.4492 13.5948 12.8844 12.6612 11.4708L13.9932 9.41399C15.528 9.60959 16.8552 9.22319 17.4936 8.23559C18.6012 6.52799 17.2536 3.68519 14.4876 1.88399C11.7192 0.0815897 8.58001 0.00598963 7.47481 1.71119C6.83401 2.69999 7.02121 4.07159 7.82641 5.39879L6.49201 7.45559C4.82521 7.17599 3.23281 7.43639 2.04841 8.22359C2.04121 8.22599 2.03281 8.22839 2.02801 8.23319C1.88962 8.32727 1.75661 8.42903 1.62961 8.53799C1.60921 8.55479 1.58521 8.57039 1.56841 8.58719C1.4532 8.68899 1.34458 8.79801 1.24321 8.91359C1.21921 8.94239 1.18561 8.96759 1.16281 8.99759C1.035 9.14233 0.918648 9.2968 0.814806 9.45959C-0.845994 12.0192 0.571206 15.8928 3.97441 18.1104C7.38001 20.328 11.4864 20.0472 13.1436 17.4876C13.248 17.3256 13.344 17.1564 13.4232 16.9824ZM12.4452 5.03279C11.3808 4.34039 10.8612 3.24839 11.2872 2.58959C11.712 1.93319 12.9204 1.96319 13.9824 2.65559C15.0492 3.34799 15.564 4.44239 15.1404 5.09879C14.7168 5.75519 13.5108 5.72519 12.4452 5.03279Z" fill="black"/>
</svg>
