<svg width="24" height="24" viewBox="0 0 24 24" fill="none" xmlns="http://www.w3.org/2000/svg">
<path opacity="0.6" d="M22.3804 12.0001C22.3804 10.9805 24.2277 9.73194 23.9765 8.79152C23.7163 7.81843 21.485 7.66166 20.992 6.80976C20.4919 5.94572 21.4666 3.936 20.7654 3.23473C20.0641 2.53338 18.0544 3.50796 17.1903 3.00807C16.3384 2.51517 16.1816 0.283603 15.2086 0.0234943C14.2682 -0.227791 13.0196 1.61951 12 1.61951C10.9804 1.61951 9.73183 -0.227791 8.79156 0.0234943C7.81832 0.283674 7.66169 2.51517 6.80972 3.00807C5.94568 3.50818 3.93611 2.53338 3.23477 3.23473C2.5335 3.936 3.50793 5.94572 3.00804 6.80983C2.51529 7.66159 0.283577 7.81836 0.023469 8.79145C-0.227675 9.73187 1.61962 10.9805 1.61962 12.0001C1.61962 13.0195 -0.227675 14.2681 0.023469 15.2086C0.283648 16.1816 2.51529 16.3383 3.00804 17.1902C3.50814 18.0544 2.5335 20.064 3.23477 20.7653C3.93611 21.4666 5.94568 20.492 6.80993 20.9919C7.66169 21.4848 7.81832 23.7164 8.79156 23.9765C9.73183 24.2278 10.9805 22.3804 12 22.3804C13.0196 22.3804 14.2682 24.2278 15.2086 23.9765C16.1816 23.7163 16.3384 21.4848 17.1904 20.9919C18.0544 20.4918 20.0642 21.4666 20.7654 20.7653C21.4666 20.0639 20.4922 18.0544 20.992 17.1901C21.4849 16.3383 23.7163 16.1816 23.9765 15.2086C24.2277 14.2682 22.3804 13.0195 22.3804 12.0001Z" fill="#FFBE55"/>
<path d="M20.0136 12.0001C20.0136 16.0477 17.0127 19.3944 13.114 19.9366C12.75 19.9878 12.3782 20.0136 12.0003 20.0136C7.5744 20.0136 3.98596 16.4258 3.98596 12.0002C3.98596 7.57418 7.57433 3.98651 12.0003 3.98651C12.3782 3.98651 12.7501 4.01249 13.114 4.06338C17.0128 4.60548 20.0136 7.95231 20.0136 12.0001Z" fill="#FFBE55"/>
</svg>
