<svg width="18" height="24" viewBox="0 0 18 24" fill="none" xmlns="http://www.w3.org/2000/svg">
<path d="M15.3 12.48C16.7912 12.48 18 13.7694 18 15.36V16.32C18 20.1052 14.6529 24 9 24C3.34712 24 0 20.1052 0 16.32V15.36C0 13.7694 1.20883 12.48 2.7 12.48H15.3ZM15.3 14.4H2.7C2.20294 14.4 1.8 14.8298 1.8 15.36V16.32C1.8 19.0803 4.37788 22.08 9 22.08C13.6221 22.08 16.2 19.0803 16.2 16.32V15.36C16.2 14.8298 15.7971 14.4 15.3 14.4ZM9 0C11.7338 0 13.95 2.36394 13.95 5.28C13.95 8.19606 11.7338 10.56 9 10.56C6.26619 10.56 4.05 8.19606 4.05 5.28C4.05 2.36394 6.26619 0 9 0ZM9 1.92C7.2603 1.92 5.85 3.42432 5.85 5.28C5.85 7.13568 7.2603 8.64 9 8.64C10.7397 8.64 12.15 7.13568 12.15 5.28C12.15 3.42432 10.7397 1.92 9 1.92Z" fill="#212121"/>
</svg>
