<svg width="24" height="24" viewBox="0 0 24 24" fill="none" xmlns="http://www.w3.org/2000/svg">
<path d="M12.75 6.74999C12.75 7.16399 12.414 7.49999 12 7.49999C11.586 7.49999 11.25 7.16399 11.25 6.74999C11.25 6.69149 11.271 6.63974 11.283 6.58499H11.268L11.8433 4.63424C11.8935 4.45574 12.1065 4.45574 12.156 4.63424L12.7305 6.58274H12.7155C12.729 6.63824 12.75 6.69074 12.75 6.74999Z" fill="black"/>
<path d="M18.75 4.5H16.7362C15.891 2.72925 14.0888 1.5 12 1.5C9.91125 1.5 8.109 2.72925 7.26375 4.5H5.25C4.0095 4.5 3 5.5095 3 6.75V20.25C3 21.4905 4.0095 22.5 5.25 22.5H18.75C19.9905 22.5 21 21.4905 21 20.25V6.75C21 5.5095 19.9905 4.5 18.75 4.5ZM12 3C14.0677 3 15.75 4.68225 15.75 6.75C15.75 8.81775 14.0677 10.5 12 10.5C9.93225 10.5 8.25 8.81775 8.25 6.75C8.25 4.68225 9.93225 3 12 3ZM18 19.125C18 19.332 17.832 19.5 17.625 19.5H6.375C6.168 19.5 6 19.332 6 19.125V14.625C6 14.418 6.168 14.25 6.375 14.25H17.625C17.832 14.25 18 14.418 18 14.625V19.125Z" fill="#001111"/>
</svg>
